<?xml version="1.0" standalone="no"?>
<!DOCTYPE svg PUBLIC "-//W3C//DTD SVG 20010904//EN"
 "http://www.w3.org/TR/2001/REC-SVG-20010904/DTD/svg10.dtd">
<svg version="1.0" xmlns="http://www.w3.org/2000/svg"
 width="1254.000000pt" height="1254.000000pt" viewBox="0 0 1254.000000 1254.000000"
 preserveAspectRatio="xMidYMid meet">

<g transform="translate(0.000000,1254.000000) scale(0.100000,-0.100000)"
fill="#000000" stroke="none">
<path d="M6010 11574 c-1055 -92 -1972 -630 -2545 -1494 -307 -462 -499 -1009
-545 -1548 -8 -89 -10 -1225 -8 -3782 l3 -3655 3345 -3 c1840 -1 3355 0 3368
3 l22 5 -3 3703 c-3 4079 2 3760 -63 4076 -95 467 -292 920 -564 1301 -481
672 -1189 1141 -1994 1320 -261 58 -387 71 -691 75 -154 1 -300 1 -325 -1z
m605 -105 c237 -23 542 -92 773 -175 735 -265 1345 -776 1732 -1449 219 -379
355 -791 417 -1255 16 -126 18 -295 20 -2452 l4 -2318 -281 0 -280 0 0 1293 0
1293 -237 214 c-131 118 -411 373 -622 565 -390 354 -525 477 -680 618 -47 42
-92 77 -99 77 -7 0 -34 -19 -60 -43 -411 -377 -1446 -1338 -1494 -1388 l-38
-38 0 -2056 c0 -1398 3 -2063 10 -2076 12 -21 50 -25 68 -7 9 9 12 480 12
2059 l0 2047 357 334 c197 183 428 398 513 478 253 236 621 575 628 578 4 1
221 -192 482 -430 261 -237 543 -492 625 -567 83 -75 217 -196 298 -270 l147
-134 0 -1273 0 -1274 -184 0 c-158 0 -185 -2 -190 -16 -3 -9 -6 -121 -6 -250
l0 -234 -237 -2 -238 -3 -5 -245 -5 -245 -343 -3 -343 -2 -10 -28 c-7 -17 -9
-105 -8 -232 l3 -205 -309 -5 c-171 -3 -311 -7 -312 -8 -2 -1 -4 -82 -5 -179
l-3 -178 -345 -5 -345 -5 -5 -190 -5 -190 -355 -5 -355 -5 -5 -200 -5 -200
-252 -3 c-139 -1 -253 0 -253 2 0 2 27 49 60 105 322 542 434 1095 324 1590
-49 216 -115 373 -266 626 -46 77 -96 168 -111 202 -29 65 -57 189 -57 251 0
67 29 175 57 216 40 58 43 71 27 95 -14 20 -24 21 -165 21 -139 0 -150 1 -145
18 3 9 33 118 65 242 69 256 65 251 183 295 301 114 470 282 558 553 34 103
30 132 -16 132 -34 0 -175 -66 -255 -120 -87 -58 -244 -220 -299 -308 -40 -64
-68 -94 -55 -59 3 6 36 139 73 295 38 155 71 283 73 285 337 233 506 494 550
847 20 154 -1 167 -137 86 -153 -91 -298 -238 -381 -385 -71 -125 -123 -332
-123 -487 0 -39 -20 -145 -54 -290 -132 -560 -149 -629 -156 -638 -5 -4 -8
126 -9 290 0 165 -5 389 -11 499 -5 110 -10 300 -10 423 l0 223 46 82 c65 116
181 308 202 335 13 16 47 30 132 52 384 101 629 277 811 583 79 133 66 165
-62 142 -192 -33 -405 -121 -539 -223 -140 -107 -285 -277 -369 -432 -81 -150
-206 -343 -209 -323 -4 28 34 302 64 454 42 217 116 470 205 700 47 120 51
127 87 142 20 8 71 21 112 27 102 17 265 71 359 120 159 83 330 249 410 401
59 109 36 125 -130 89 -228 -48 -401 -142 -586 -315 -46 -42 -83 -75 -83 -73
0 3 38 81 84 174 l83 169 106 87 c303 251 490 566 542 912 22 149 7 162 -117
101 -227 -112 -413 -301 -515 -523 -57 -123 -84 -246 -90 -407 l-6 -140 -65
-130 c-142 -284 -253 -543 -332 -777 -24 -71 -45 -126 -47 -124 -2 2 -8 39
-13 82 -8 70 -6 89 15 164 55 193 73 431 46 590 -24 137 -115 375 -168 440
-18 21 -24 23 -45 13 -20 -9 -31 -31 -57 -110 -48 -153 -63 -243 -64 -393 0
-197 38 -351 136 -547 45 -89 47 -98 69 -270 l23 -178 -37 -181 c-75 -373 -98
-704 -78 -1149 17 -388 25 -1244 12 -1257 -7 -7 -16 14 -27 63 -36 159 -124
453 -261 871 l-74 228 0 130 0 130 34 52 c165 260 200 529 105 815 -34 104
-67 98 -131 -25 -88 -169 -119 -296 -119 -492 0 -74 5 -159 11 -189 13 -68 13
-93 1 -71 -11 20 -84 315 -113 456 l-22 112 19 113 c29 167 26 362 -8 491 -45
173 -122 322 -243 477 -56 72 -87 88 -112 59 -18 -22 -42 -164 -49 -286 -16
-304 74 -585 260 -814 43 -53 48 -65 76 -190 17 -73 44 -187 60 -253 16 -66
29 -121 27 -122 -1 -2 -25 30 -52 70 -89 130 -238 256 -366 310 -86 36 -104 1
-68 -130 34 -125 113 -266 195 -349 74 -76 193 -152 280 -180 75 -25 111 -56
128 -111 8 -27 50 -160 95 -298 87 -273 113 -358 108 -362 -2 -2 -15 14 -29
36 -46 69 -204 227 -282 280 -106 74 -276 153 -317 149 -28 -2 -34 -8 -36 -31
-5 -38 22 -115 74 -217 82 -160 186 -261 349 -340 55 -26 134 -56 175 -65 89
-21 125 -38 145 -68 12 -19 84 -297 110 -424 l7 -33 -149 0 c-192 0 -203 -8
-139 -115 59 -98 72 -228 37 -367 -23 -88 -44 -133 -145 -302 -236 -393 -314
-668 -303 -1066 10 -384 119 -733 353 -1136 35 -61 64 -114 64 -118 0 -3 -249
-5 -552 -4 l-553 3 0 3660 c0 3454 1 3667 18 3789 100 728 421 1380 927 1886
431 431 939 720 1523 865 216 53 377 78 652 99 75 6 365 -3 490 -15z m-925
-2176 c0 -33 -51 -208 -84 -289 -70 -172 -193 -344 -352 -493 -124 -115 -124
-115 -124 -42 0 83 26 212 62 306 75 195 212 362 396 486 79 52 102 60 102 32z
m-1192 -936 c56 -134 74 -219 79 -382 4 -113 1 -171 -11 -235 -22 -115 -35
-162 -46 -155 -18 11 -89 214 -105 300 -24 126 -17 336 15 462 13 51 26 90 31
88 4 -3 21 -38 37 -78z m1140 -144 c-93 -134 -272 -276 -419 -333 -97 -37
-224 -72 -246 -68 -25 5 169 203 260 266 125 86 341 180 415 182 23 0 23 -1
-10 -47z m-2019 -704 c141 -214 203 -448 180 -685 -5 -57 -13 -113 -18 -126
-7 -21 -11 -18 -55 42 -94 127 -163 308 -187 487 -16 118 -2 363 20 363 4 0
31 -36 60 -81z m2011 -218 c0 -18 -113 -167 -173 -229 -110 -113 -212 -183
-359 -246 -97 -41 -256 -91 -265 -83 -8 8 59 103 129 184 154 176 355 305 571
363 83 22 97 23 97 11z m-1455 -660 c21 -103 19 -241 -5 -337 -21 -80 -87
-234 -101 -234 -13 0 -22 148 -16 274 3 78 13 147 26 193 23 79 69 189 76 181
2 -2 11 -37 20 -77z m1130 -193 c-33 -198 -136 -408 -269 -546 -61 -64 -177
-162 -191 -162 -5 0 -5 31 -2 68 20 239 150 465 359 622 97 74 112 76 103 18z
m-1767 -144 c109 -70 223 -207 301 -360 17 -34 31 -65 31 -68 0 -4 -33 10 -72
31 -111 58 -213 164 -271 283 -46 93 -66 150 -53 150 4 0 33 -16 64 -36z
m1697 -896 c-14 -46 -79 -165 -122 -220 -52 -68 -131 -135 -217 -183 -65 -36
-146 -68 -146 -58 0 10 51 95 89 148 60 84 113 143 176 194 62 50 202 141 218
141 4 0 5 -10 2 -22z m-1532 -64 c150 -76 268 -177 376 -321 45 -59 81 -111
81 -115 0 -23 -170 47 -259 107 -76 50 -132 107 -185 186 -43 66 -89 169 -76
169 6 0 34 -12 63 -26z m565 -1151 c-10 -2 -28 -2 -40 0 -13 2 -5 4 17 4 22 1
32 -1 23 -4z m282 -3 c-52 -4 -59 -7 -35 -12 45 -9 -38 -1 -100 10 -42 8 -29
9 75 9 96 0 110 -2 60 -7z m107 -102 c-3 -8 -6 -5 -6 6 -1 11 2 17 5 13 3 -3
4 -12 1 -19z m-400 -20 c-3 -8 -6 -5 -6 6 -1 11 2 17 5 13 3 -3 4 -12 1 -19z
m421 -308 c12 -35 19 -66 17 -69 -3 -2 -5 1 -5 8 0 7 -4 10 -9 7 -5 -4 -7 4
-4 16 4 19 3 20 -6 8 -9 -12 -10 -9 -5 15 3 19 2 25 -3 17 -7 -9 -10 -2 -11
20 0 18 -3 92 -5 163 l-5 130 8 -125 c5 -80 15 -148 28 -190z m-398 241 c7
-13 7 -21 2 -17 -6 4 -12 -7 -15 -26 -2 -22 -4 -15 -5 21 -2 58 -1 59 18 22z
m-45 -246 c-14 -27 -24 -43 -22 -34 40 139 42 144 45 114 2 -18 -8 -51 -23
-80z m75 79 c0 -8 -19 -13 -24 -6 -3 5 1 9 9 9 8 0 15 -2 15 -3z m5248 -1366
l-3 -1273 -2079 -3 c-1499 -1 -2082 1 -2087 9 -8 14 -4 292 5 307 5 9 100 12
356 12 l349 0 7 47 c4 26 4 106 1 178 -4 71 -3 136 2 143 6 11 78 14 337 16
181 2 335 4 341 5 9 1 13 47 15 179 l3 177 310 5 310 5 5 235 5 235 590 5 590
5 0 35 0 35 -240 5 -240 5 0 200 0 200 498 5 c528 5 516 4 517 50 0 37 -18 40
-277 40 l-253 0 0 205 0 205 470 0 470 0 -2 -1272z m-5357 1205 c-12 -20 -14
-14 -5 12 4 9 9 14 11 11 3 -2 0 -13 -6 -23z m599 -163 c74 -124 200 -367 199
-383 0 -7 -14 16 -30 51 -16 35 -33 61 -39 57 -5 -3 -7 0 -4 9 7 18 -98 212
-130 241 -12 12 -20 27 -18 34 3 8 0 11 -7 7 -10 -6 -12 -3 -11 19 0 3 -6 18
-15 35 -14 27 -20 49 -11 39 2 -2 32 -51 66 -109z m-640 81 c-5 -11 -7 -28 -4
-38 5 -15 4 -15 -5 -3 -6 8 -11 11 -11 5 0 -5 -10 -21 -21 -35 l-21 -25 14 25
c8 14 23 40 32 58 9 17 19 32 22 32 2 0 0 -9 -6 -19z m584 -57 c3 -8 2 -12 -4
-9 -6 3 -10 10 -10 16 0 14 7 11 14 -7z m-650 -61 c-5 -15 -3 -15 10 1 20 25
21 8 1 -18 -9 -12 -15 -15 -15 -7 0 7 -9 3 -20 -10 -19 -23 -19 -22 1 14 23
40 32 48 23 20z m-94 -162 c-6 -12 -8 -27 -4 -33 4 -7 3 -8 -4 -4 -6 4 -18 -5
-26 -21 -8 -15 -15 -24 -16 -19 0 12 53 107 57 102 3 -2 0 -14 -7 -25z m-99
-208 c-12 -20 -14 -14 -5 12 4 9 9 14 11 11 3 -2 0 -13 -6 -23z m1133 -73 c5
-20 3 -19 -8 5 -7 17 -16 41 -20 55 -5 20 -3 19 8 -5 7 -16 16 -41 20 -55z
m45 -170 c0 -8 -7 8 -15 35 -7 28 -13 57 -13 65 0 8 7 -7 15 -35 7 -27 13 -57
13 -65z m-1255 -39 c-9 -50 -19 -90 -21 -87 -2 2 3 45 12 96 10 50 19 89 22
87 2 -3 -4 -46 -13 -96z m1263 -3 c-3 -8 -6 -5 -6 6 -1 11 2 17 5 13 3 -3 4
-12 1 -19z m-29 -43 c-3 -3 -9 2 -12 12 -6 14 -5 15 5 6 7 -7 10 -15 7 -18z
m39 -32 c-3 -10 -5 -2 -5 17 0 19 2 27 5 18 2 -10 2 -26 0 -35z m22 -242 c2
-145 -6 -104 -11 64 -3 88 -2 125 2 90 4 -33 8 -102 9 -154z m-1322 167 c-3
-8 -6 -5 -6 6 -1 11 2 17 5 13 3 -3 4 -12 1 -19z m-10 -200 c-2 -24 -4 -7 -4
37 0 44 2 63 4 43 2 -21 2 -57 0 -80z m10 -145 c-2 -16 -4 -5 -4 22 0 28 2 40
4 28 2 -13 2 -35 0 -50z m1310 -10 c-2 -16 -4 -3 -4 27 0 30 2 43 4 28 2 -16
2 -40 0 -55z m-1300 -80 c-3 -10 -5 -4 -5 12 0 17 2 24 5 18 2 -7 2 -21 0 -30z
m1290 0 c-3 -10 -5 -4 -5 12 0 17 2 24 5 18 2 -7 2 -21 0 -30z m-1280 -55 c-3
-7 -5 -2 -5 12 0 14 2 19 5 13 2 -7 2 -19 0 -25z m1270 0 c-3 -7 -5 -2 -5 12
0 14 2 19 5 13 2 -7 2 -19 0 -25z m-9 -49 c-3 -8 -7 -3 -11 10 -4 17 -3 21 5
13 5 -5 8 -16 6 -23z m-23 -109 c-10 -39 -20 -69 -22 -66 -3 3 2 37 12 76 10
39 20 69 22 66 3 -3 -2 -37 -12 -76z m-1208 18 c-3 -8 -6 -5 -6 6 -1 11 2 17
5 13 3 -3 4 -12 1 -19z m22 -68 c0 -9 -4 -8 -9 5 -5 11 -9 27 -9 35 0 9 4 8 9
-5 5 -11 9 -27 9 -35z m1142 -91 c-5 -13 -10 -19 -10 -12 -1 15 10 45 15 40 3
-2 0 -15 -5 -28z m-998 -257 c11 -2 15 -11 13 -25 -2 -12 3 -35 11 -50 8 -16
13 -31 10 -33 -9 -9 -147 311 -147 339 1 6 22 -42 49 -108 31 -78 54 -121 64
-123z m979 198 l-9 -24 -5 22 c-4 12 -2 20 3 16 5 -3 9 0 9 7 0 7 2 10 5 7 3
-3 2 -16 -3 -28z m-1042 -20 c0 -13 -1 -13 -10 0 -5 8 -10 22 -10 30 0 13 1
13 10 0 5 -8 10 -22 10 -30z m17 8 c-3 -8 -6 -5 -6 6 -1 11 2 17 5 13 3 -3 4
-12 1 -19z m984 -95 c-12 -20 -14 -14 -5 12 4 9 9 14 11 11 3 -2 0 -13 -6 -23z
m-26 -59 c-9 -16 -13 -20 -9 -9 4 11 6 29 6 39 -1 13 2 16 9 9 8 -8 6 -20 -6
-39z m-22 -49 c-3 -9 -8 -14 -10 -11 -3 3 -2 9 2 15 9 16 15 13 8 -4z m-46
-79 c23 31 14 1 -12 -41 -13 -22 -25 -35 -25 -28 0 6 5 15 10 18 6 3 10 11 10
17 0 7 -5 7 -14 -1 -11 -9 -15 -8 -20 4 -4 10 -2 14 5 9 8 -4 9 1 4 17 -7 22
-7 22 11 5 17 -18 18 -18 31 0z m-777 -68 c0 -15 28 -8 34 8 3 8 10 12 16 9 6
-4 8 -11 5 -16 -4 -5 1 -9 9 -9 9 0 16 -4 16 -10 0 -5 -4 -10 -10 -10 -5 0
-10 -5 -10 -11 0 -5 5 -7 11 -3 8 4 7 0 -1 -15 -6 -12 -16 -19 -22 -15 -5 4
-2 -6 8 -22 13 -21 13 -25 2 -14 -8 8 -32 47 -53 85 -20 39 -30 61 -21 51 9
-11 16 -23 16 -28z m678 -113 c6 11 12 16 12 11 0 -14 -42 -77 -48 -71 -3 3 0
11 6 17 14 14 16 32 3 24 -5 -4 -7 4 -3 16 5 20 6 21 12 3 7 -19 7 -19 18 0z
m-79 -101 c-6 -7 -16 -11 -23 -7 -7 5 -5 9 7 11 9 2 14 8 11 14 -4 7 -2 8 5 4
9 -6 9 -11 0 -22z m22 -6 l-20 -33 -228 -3 -228 -2 -17 28 c-14 23 -14 29 -4
29 8 0 12 -7 8 -15 -4 -11 -1 -13 8 -7 8 5 11 4 7 -2 -12 -20 23 -23 237 -23
l212 0 17 30 c10 17 21 30 24 30 3 0 -4 -15 -16 -32z m-414 -14 c-3 -3 -12 -4
-19 -1 -8 3 -5 6 6 6 11 1 17 -2 13 -5z"/>
<path d="M7395 10313 c-300 -28 -556 -205 -681 -468 -167 -351 -79 -756 218
-1006 83 -69 156 -108 279 -150 89 -31 102 -33 239 -33 162 0 223 12 347 69
415 192 600 683 414 1098 -88 195 -260 359 -459 436 -107 41 -257 64 -357 54z
m150 -102 l40 -7 -47 -7 c-32 -4 -57 -2 -80 8 l-33 14 40 0 c22 0 58 -3 80 -8z
m-195 -11 c-8 -5 -24 -10 -35 -11 l-20 0 20 -8 c14 -6 8 -8 -24 -8 -30 0 -48
-6 -57 -17 -8 -11 -21 -15 -38 -12 -26 5 -107 -27 -90 -36 5 -3 4 -4 -1 -3 -6
2 -24 -8 -40 -21 -29 -23 -29 -23 -5 -18 24 5 24 5 6 -10 -15 -12 -23 -13 -33
-4 -8 6 -13 7 -12 2 4 -24 -2 -36 -17 -30 -18 7 -47 -11 -39 -24 3 -5 0 -12
-6 -16 -8 -4 -9 -3 -5 4 4 7 4 12 -1 12 -7 0 -30 -30 -65 -86 -4 -7 2 -23 13
-38 11 -14 15 -26 9 -26 -6 0 -13 7 -16 15 -5 11 -12 7 -31 -15 -14 -17 -30
-27 -35 -23 -6 3 -9 2 -5 -3 3 -5 -6 -23 -20 -39 l-24 -30 14 35 c69 172 260
338 452 394 33 10 65 19 70 21 6 2 19 4 30 4 16 1 17 -1 5 -9z m405 -50 c84
-41 150 -83 90 -58 -16 7 -32 15 -35 19 -18 22 -109 42 -96 21 7 -12 -37 -13
-60 -1 -14 7 -20 18 -17 30 4 13 -2 22 -18 29 -19 8 -16 9 16 4 22 -3 76 -23
120 -44z m-255 20 c0 -5 -9 -10 -20 -10 -11 0 -20 5 -20 10 0 6 9 10 20 10 11
0 20 -4 20 -10z m-225 -20 c-3 -5 -10 -10 -16 -10 -5 0 -9 5 -9 10 0 6 7 10
16 10 8 0 12 -4 9 -10z m719 -172 c31 -34 53 -64 50 -67 -4 -3 -9 0 -11 7 -4
10 -9 8 -20 -5 -8 -10 -12 -12 -8 -5 4 7 0 12 -10 12 -11 0 -15 5 -12 14 4 9
-2 17 -14 21 -14 5 -19 13 -16 26 3 10 0 22 -5 26 -6 3 -8 1 -4 -5 3 -6 1 -14
-5 -18 -8 -4 -9 -3 -5 4 4 7 1 12 -6 13 -10 0 -11 2 0 6 10 4 10 8 1 19 -7 9
-8 14 -1 14 6 0 35 -28 66 -62z m-1058 -36 c-18 -16 -18 -16 -6 6 6 13 14 21
18 18 3 -4 -2 -14 -12 -24z m-66 -126 c0 -16 -18 -31 -27 -22 -8 8 5 36 17 36
5 0 10 -6 10 -14z m1281 -103 c21 -61 24 -93 10 -93 -15 0 -42 31 -36 41 4 5
-2 6 -12 2 -15 -6 -16 -4 -6 8 14 18 19 74 9 109 -13 46 13 -5 35 -67z m-1366
15 c-4 -13 -11 -27 -16 -32 -5 -6 -9 -19 -9 -30 0 -10 -3 -16 -6 -13 -9 9 16
97 28 97 5 0 6 -10 3 -22z m1328 2 c-3 -11 -7 -20 -9 -20 -2 0 -4 9 -4 20 0
11 4 20 9 20 5 0 7 -9 4 -20z m-1338 -275 c0 -30 -1 -51 -3 -45 -6 17 -19 11
-27 -12 -6 -19 -9 -13 -15 27 -4 28 -3 57 1 65 7 12 8 10 9 -7 0 -12 5 -25 10
-28 6 -3 10 4 10 18 0 19 7 37 14 37 1 0 1 -25 1 -55z m1412 3 c-3 -7 -5 -2
-5 12 0 14 2 19 5 13 2 -7 2 -19 0 -25z m-47 -128 c0 -5 -7 -10 -15 -10 -8 0
-15 5 -15 10 0 6 7 10 15 10 8 0 15 -4 15 -10z m25 -32 c-4 -18 -10 -35 -14
-38 -3 -3 -7 -12 -9 -20 -4 -21 -34 -92 -45 -108 -15 -19 -36 16 -37 59 0 28
5 38 19 42 15 3 17 0 13 -16 -5 -21 -5 -21 15 -1 20 20 53 83 53 103 0 6 3 11
6 11 3 0 2 -15 -1 -32z m-1378 -79 c13 -33 18 -38 25 -25 16 29 27 17 26 -31
-1 -27 2 -57 7 -68 4 -11 -3 -4 -17 16 -25 35 -73 149 -63 149 3 0 13 -18 22
-41z m76 -56 c-3 -7 -6 -13 -8 -13 -2 0 -5 6 -8 13 -3 8 1 14 8 14 7 0 11 -6
8 -14z m1197 -97 c0 -2 -8 -10 -17 -17 -16 -13 -17 -12 -4 4 13 16 21 21 21
13z m-1146 -63 c6 -15 9 -15 17 -3 9 12 10 12 5 -2 -4 -15 -2 -16 13 -7 14 9
23 8 44 -6 31 -20 34 -33 11 -42 -12 -5 -7 -14 28 -45 l43 -39 -61 41 c-58 39
-136 120 -116 120 6 0 13 -8 16 -17z m961 -22 c3 -5 1 -12 -5 -16 -5 -3 -10 1
-10 9 0 18 6 21 15 7z m68 -18 c-6 -16 -4 -16 18 2 13 11 8 2 -11 -19 -35 -38
-106 -94 -83 -65 7 9 9 20 5 24 -4 5 -2 5 5 1 6 -3 14 -2 18 4 3 5 1 10 -4 10
-6 0 -11 4 -11 9 0 4 11 6 24 4 13 -3 27 0 30 6 5 7 1 9 -8 5 -21 -8 -20 6 2
22 22 17 23 17 15 -3z m-93 -98 c0 -2 -10 -9 -22 -15 -22 -11 -22 -10 -4 4 21
17 26 19 26 11z m-710 -15 c23 12 44 5 34 -12 -4 -6 1 -8 14 -4 11 4 23 2 27
-4 3 -5 1 -10 -6 -10 -6 0 -1 -9 12 -20 13 -10 20 -19 16 -20 -13 0 -157 68
-157 75 0 3 9 1 20 -5 14 -8 26 -8 40 0z m545 0 c4 -6 16 -8 28 -5 12 2 16 2
9 -1 -6 -3 -10 -10 -6 -15 9 -15 -6 -10 -33 11 -14 11 -21 20 -15 20 6 0 14
-5 17 -10z m60 -40 c-6 -10 -105 -44 -111 -38 -2 3 7 11 21 18 14 7 25 16 25
19 0 3 16 7 35 8 20 1 33 -2 30 -7z m-421 -32 c-4 -7 -3 -8 5 -4 6 4 17 3 24
-2 7 -5 21 -12 32 -15 11 -3 -5 -3 -35 0 -62 6 -71 10 -50 23 21 13 33 12 24
-2z m231 -18 c4 -6 -17 -10 -57 -9 -50 1 -57 3 -33 9 44 11 83 11 90 0z"/>
<path d="M6852 9879 c-7 -10 -12 -21 -12 -24 0 -10 29 7 34 20 8 23 -9 26 -22
4z"/>
<path d="M4283 9764 c-7 -16 -17 -47 -24 -69 -28 -95 -42 -110 -126 -140 -43
-15 -82 -32 -88 -38 -7 -7 -3 -7 10 -2 35 13 62 17 35 4 l-25 -11 40 -14 c22
-8 45 -12 53 -9 7 2 10 1 7 -4 -6 -11 26 -23 46 -19 7 2 14 -6 15 -17 5 -36
56 -175 65 -175 13 0 31 50 25 67 -3 7 -2 13 2 13 11 0 34 68 27 79 -3 5 0 13
6 17 8 5 9 3 4 -6 -6 -9 -4 -11 4 -6 7 5 10 15 7 23 -5 11 -2 13 10 9 10 -4
42 3 73 15 31 12 65 25 76 29 18 7 18 9 -9 19 -18 7 -32 8 -35 2 -4 -5 -18 -4
-36 5 -30 13 -30 13 -2 8 44 -10 31 3 -23 21 -40 13 -54 24 -70 53 -10 21 -19
33 -20 27 -1 -12 -39 66 -39 80 0 6 7 1 15 -10 15 -19 15 -19 8 10 -15 65 -19
70 -31 39z m7 -74 c6 -11 7 -20 2 -20 -6 0 -12 9 -15 20 -3 11 -3 20 -1 20 2
0 8 -9 14 -20z m64 -109 c-6 -6 -11 1 -18 29 l-7 25 15 -25 c8 -14 12 -27 10
-29z m121 -79 c-3 -3 -11 0 -18 7 -9 10 -8 11 6 5 10 -3 15 -9 12 -12z m-172
-197 c-3 -9 -8 -14 -10 -11 -3 3 -2 9 2 15 9 16 15 13 8 -4z"/>
<path d="M8730 8380 c-6 -23 -13 -49 -16 -58 -3 -9 2 -5 10 10 10 17 22 25 31
22 8 -4 15 -1 15 5 0 6 -4 11 -9 11 -5 0 -7 8 -4 19 3 10 0 22 -6 25 -6 4 -15
-10 -21 -34z"/>
<path d="M6615 8300 c-26 -79 -41 -97 -96 -115 -63 -21 -62 -43 6 -70 53 -22
62 -34 97 -130 l21 -60 24 70 c13 38 21 75 19 82 -3 7 -2 12 2 11 4 -1 29 8
55 20 27 12 53 22 58 22 6 0 7 4 4 10 -4 6 1 7 11 3 11 -4 15 -2 12 7 -2 7
-29 22 -59 32 -30 10 -60 26 -68 36 -12 16 -13 15 -8 -6 3 -13 1 -20 -5 -16
-5 3 -7 15 -5 26 3 10 -3 42 -13 71 -10 29 -19 45 -20 37 -1 -10 -4 -9 -9 5
-6 16 -11 9 -26 -35z m-15 -95 c0 -8 -4 -15 -10 -15 -5 0 -7 7 -4 15 4 8 8 15
10 15 2 0 4 -7 4 -15z"/>
<path d="M8772 8316 c2 -10 -3 -21 -11 -24 -9 -3 -11 0 -6 8 5 9 1 9 -16 -1
-13 -7 -27 -13 -30 -14 -9 0 -65 -69 -72 -87 -7 -19 -32 -24 -41 -9 -4 5 4 7
16 5 23 -5 23 -5 1 5 -23 10 -63 4 -63 -10 0 -5 8 -9 18 -9 11 0 13 -3 5 -8
-7 -5 10 -16 46 -30 54 -21 61 -27 80 -72 12 -27 21 -52 21 -57 0 -5 8 -19 17
-32 16 -23 17 -23 24 -5 11 29 10 46 -2 38 -7 -4 -9 0 -5 14 4 11 2 23 -4 27
-5 3 -10 1 -10 -6 0 -7 -2 -10 -5 -7 -8 7 16 68 26 68 5 0 9 -6 9 -12 0 -9 3
-8 10 2 5 8 13 15 17 15 23 2 83 28 83 36 0 6 4 8 8 5 5 -3 9 1 9 9 0 8 -4 12
-9 9 -13 -8 -9 3 7 19 12 13 8 17 -33 33 -26 10 -50 18 -54 19 -3 0 -10 4 -15
9 -5 5 -3 6 4 2 9 -5 11 -2 7 8 -3 8 -12 12 -20 9 -16 -6 -19 8 -4 23 6 6 6
15 -1 24 -8 12 -9 12 -7 -4z m-82 -70 c0 -2 -8 -10 -17 -17 -16 -13 -17 -12
-4 4 13 16 21 21 21 13z m92 -128 c-7 -7 -12 -8 -12 -2 0 14 12 26 19 19 2 -3
-1 -11 -7 -17z"/>
<path d="M7328 6833 c7 -3 16 -2 19 1 4 3 -2 6 -13 5 -11 0 -14 -3 -6 -6z"/>
<path d="M7369 6826 c11 -13 6 -15 -28 -14 -24 0 -38 4 -35 10 4 5 -7 3 -23
-5 -16 -9 -34 -27 -41 -42 -14 -31 -16 -46 -2 -25 8 12 10 13 10 1 0 -8 7 -22
16 -32 12 -13 12 -19 3 -25 -7 -4 -10 -3 -5 4 6 11 -9 25 -31 28 -20 3 -16
-57 7 -93 10 -18 33 -39 51 -48 17 -9 28 -12 24 -6 -3 6 1 14 9 17 9 3 13 10
10 15 -8 13 10 11 25 -3 11 -11 12 -10 6 0 -6 11 -3 12 14 3 21 -12 28 -22 14
-20 -20 3 -34 -2 -28 -11 8 -13 61 -6 81 10 30 26 44 68 41 125 -3 45 -9 61
-33 86 -17 18 -36 28 -46 25 -10 -2 -16 0 -12 5 3 5 -5 9 -17 9 -17 0 -19 -3
-10 -14z m-24 -26 c3 -5 -1 -10 -10 -10 -9 0 -13 5 -10 10 3 6 8 10 10 10 2 0
7 -4 10 -10z m132 -72 c-3 -8 -6 -5 -6 6 -1 11 2 17 5 13 3 -3 4 -12 1 -19z
m-14 -39 c-3 -10 -8 -19 -10 -19 -3 0 -3 9 0 20 3 11 1 20 -5 20 -5 0 -6 5 -2
11 10 16 23 -9 17 -32z m-216 6 c0 -8 -4 -12 -9 -9 -5 3 -6 10 -3 15 9 13 12
11 12 -6z"/>
<path d="M7268 5809 c-118 -27 -227 -119 -286 -238 l-37 -75 -5 -805 -5 -805
-34 -7 c-18 -4 -37 -13 -42 -21 -5 -7 -9 -63 -9 -125 0 -101 2 -113 19 -123
27 -14 975 -14 1002 0 17 10 19 22 19 129 0 128 -3 137 -55 143 l-30 3 -2 780
c-3 875 -1 855 -75 965 -97 146 -287 220 -460 179z m226 -100 c77 -28 148 -96
188 -177 l33 -67 0 -790 0 -790 -345 0 -345 0 0 785 0 785 24 60 c32 80 116
164 191 193 74 28 180 29 254 1z m314 -1966 l-3 -48 -435 0 -435 0 -3 48 -3
47 441 0 441 0 -3 -47z"/>
</g>
</svg>
